<?xml version="1.0" encoding="iso-8859-1"?>
<!-- Generator: Adobe Illustrator 16.0.0, SVG Export Plug-In . SVG Version: 6.00 Build 0)  -->
<!DOCTYPE svg PUBLIC "-//W3C//DTD SVG 1.1//EN" "http://www.w3.org/Graphics/SVG/1.1/DTD/svg11.dtd">
<svg version="1.1" id="Capa_1" xmlns="http://www.w3.org/2000/svg" xmlns:xlink="http://www.w3.org/1999/xlink" x="0px" y="0px"
	 width="543.238px" height="543.238px" viewBox="0 0 543.238 543.238" style="enable-background:new 0 0 543.238 543.238;"
	 xml:space="preserve">
<g>
	<path d="M536.189,429.325L387.32,343.373v56.655c-56.992-7.087-105.459-42.021-131.333-90.712
		c-0.064,1.812-0.108,3.633-0.108,5.463l-0.819,20l0,0c-1.469,18.273-4.914,36.145-10.224,53.363
		c0.701,0.719,1.393,1.443,2.104,2.155c38.105,38.104,87.32,61.098,140.381,65.99l-0.002,58.984L536.189,429.325z"/>
	<path d="M179.576,217.568c10.334-24.388,24.61-47.109,42.507-67.363c-11.271-30.923-29.243-59.267-53.193-83.217
		C125.691,23.79,68.215,0,7.049,0v55.927C98.604,55.927,173.752,127.459,179.576,217.568z"/>
	<path d="M536.189,113.912L387.318,27.963l0.002,58.984c-53.061,4.895-102.275,27.886-140.381,65.991
		c-43.111,43.111-66.888,100.442-66.984,161.47h-0.004c0,95.339-77.564,172.902-172.903,172.902v55.928
		c61.166,0,118.643-23.791,161.841-66.989c43.111-43.11,66.888-100.442,66.984-161.47h0.004c0-88.071,66.193-160.97,151.441-171.571
		l0.002,56.656L536.189,113.912z"/>
</g>
<g>
</g>
<g>
</g>
<g>
</g>
<g>
</g>
<g>
</g>
<g>
</g>
<g>
</g>
<g>
</g>
<g>
</g>
<g>
</g>
<g>
</g>
<g>
</g>
<g>
</g>
<g>
</g>
<g>
</g>
</svg>
